<svg id="Capa_1" enable-background="new 0 0 500.528 500.528" height="512" viewBox="0 0 500.528 500.528" width="512" xmlns="http://www.w3.org/2000/svg"><g><path d="m423.652 99.559-206.659-97.56c-1.413-.667-2.786-1.149-4.113-1.481l-4 108.815 233.886 98.524v-80.162c-.001-10.512-8.602-23.174-19.114-28.136z" fill="#bd96e4"/><path d="m212.88.518c-8.551-2.14-15 2.471-15 11.571v279.53h15v-164.836l214.886 101.075v168.938h15v-188.939l-229.886-108.524z" fill="#9d66d6"/><path d="m355.501 385.589c-19.561 3.533-35.392 10.537-46.837 20.122-3.445 7.263-10.507 20.228-10.507 28.733 0 31.781 34.724 57.431 77.559 49.695 17.939-3.24 39.696-15.958 52.835-28.328 8.943-15.511 14.215-35.113 14.215-59.014-.001-.001-44.431-18.945-87.265-11.208z" fill="#bd96e4"/><path d="m303.41 429.443c0-8.505 1.808-16.469 5.253-23.733-13.616 11.404-21.016 26.465-21.016 43.733 0 31.781 34.724 57.431 77.559 49.695 26.172-4.727 49.298-18.966 63.344-43.328-13.139 12.369-29.642 20.088-47.581 23.328-42.834 7.736-77.559-17.914-77.559-49.695z" fill="#9d66d6"/><path d="m125.615 277.064c-19.562 3.533-35.392 10.537-46.837 20.122-3.445 7.263-10.507 20.228-10.507 28.732 0 31.781 34.724 57.431 77.558 49.695 17.939-3.24 39.696-15.958 52.835-28.328 8.943-15.511 14.215-35.113 14.215-59.014.001 0-44.43-18.943-87.264-11.207z" fill="#bd96e4"/><path d="m73.525 320.918c0-8.505 1.808-16.469 5.253-23.732-13.616 11.404-21.016 26.465-21.016 43.732 0 31.781 34.724 57.431 77.558 49.695 26.171-4.727 49.298-18.966 63.343-43.328-13.139 12.369-29.642 20.088-47.581 23.328-42.833 7.736-77.557-17.914-77.557-49.695z" fill="#9d66d6"/></g></svg>