<?xml version="1.0" encoding="iso-8859-1"?>
<!-- Generator: Adobe Illustrator 19.0.0, SVG Export Plug-In . SVG Version: 6.00 Build 0)  -->
<svg version="1.1" id="Capa_1" xmlns="http://www.w3.org/2000/svg" xmlns:xlink="http://www.w3.org/1999/xlink" x="0px" y="0px"
	 viewBox="0 0 512 512" style="enable-background:new 0 0 512 512;" xml:space="preserve">
<path style="fill:#2D2D30;" d="M255.997,15.223c8.27,0,14.999,6.729,14.999,14.999c0,4.453-1.964,12.665-6.274,20.17
	c-4.234,7.373-7.957,9.359-8.725,9.485c-0.768-0.127-4.491-2.112-8.725-9.485c-4.31-7.506-6.274-15.718-6.274-20.17
	C240.998,21.952,247.727,15.223,255.997,15.223 M255.997,0c-16.692,0-30.222,13.531-30.222,30.222
	c0,16.692,13.531,44.881,30.222,44.881s30.222-28.191,30.222-44.881C286.219,13.531,272.687,0,255.997,0L255.997,0z"/>
<path style="fill:#57565C;" d="M325.888,170.44H186.112V98.038c0-14.738,11.947-26.685,26.685-26.685h86.407
	c14.738,0,26.685,11.947,26.685,26.685v72.402H325.888z"/>
<path style="fill:#3E3D42;" d="M267.212,71.353h-54.415c-14.738,0-26.685,11.947-26.685,26.685v72.402h54.416V98.038
	C240.528,83.3,252.475,71.353,267.212,71.353z"/>
<circle style="fill:#FF5555;" cx="256" cy="314.588" r="197.412"/>
<path style="fill:#E04141;" d="M220.79,315.793c0-79.214,43.274-148.317,107.467-184.974c-22.378-8.806-46.752-13.644-72.256-13.644
	c-109.027,0-197.412,88.385-197.412,197.412S146.973,512,256,512c24.56,0,48.066-4.498,69.757-12.694
	C262.946,462.296,220.79,393.973,220.79,315.793z"/>
<path style="fill:#FFFFFF;" d="M298.202,317.002l11.495-21.804c3.539-6.713-1.142-14.821-8.725-15.112l-21.781-0.838l-13.135-20.858
	c-4.044-6.422-13.405-6.422-17.451,0l-11.616,18.444l-24.631,0.948c-7.583,0.291-12.265,8.399-8.725,15.112l10.165,19.281
	l-11.495,21.804c-3.539,6.713,1.142,14.821,8.725,15.112l21.781,0.838l13.136,20.858c4.044,6.422,13.405,6.422,17.451,0
	l11.616-18.444l24.631-0.948c7.583-0.291,12.265-8.399,8.725-15.112L298.202,317.002z"/>
<path style="fill:#D1E7F8;" d="M220.79,315.793c0-13.136,1.197-25.992,3.475-38.471l-11.907,0.458
	c-7.583,0.291-12.264,8.399-8.725,15.112l10.165,19.281l-11.495,21.804c-3.539,6.713,1.142,14.821,8.725,15.112l12.435,0.478
	C221.709,338.569,220.79,327.288,220.79,315.793z"/>
<circle style="fill:#FF5555;" cx="256" cy="314.588" r="19.227"/>
<path style="fill:#D1E7F8;" d="M121.846,277.135l-19.276,30.915c-2.496,4.002-2.496,9.075,0,13.077l19.276,30.915
	c4.838,7.759,16.134,7.759,20.972,0l19.276-30.915c2.496-4.002,2.496-9.075,0-13.077l-19.276-30.915
	C137.979,269.376,126.684,269.376,121.846,277.135z"/>
<path style="fill:#FFFFFF;" d="M369.183,277.135l-19.276,30.915c-2.496,4.002-2.496,9.075,0,13.077l19.276,30.915
	c4.838,7.759,16.134,7.759,20.972,0l19.276-30.915c2.496-4.002,2.496-9.075,0-13.077l-19.276-30.915
	C385.316,269.376,374.02,269.376,369.183,277.135z"/>
<path style="fill:#5AAA4F;" d="M81.056,223.064h349.887C397.947,160.123,331.994,117.175,256,117.175
	S114.053,160.124,81.056,223.064z"/>
<path style="fill:#4A994A;" d="M328.247,130.825c-22.375-8.806-46.744-13.649-72.247-13.649
	c-75.994,0-141.947,42.947-174.944,105.888h160.945C260.792,184.3,290.996,152.099,328.247,130.825z"/>
<path style="fill:#92DD7A;" d="M439.714,242.189c-3.621-9.179-7.915-18.019-12.813-26.466c-2.232,0.668-4.784,1.027-8.042,1.027
	c-8.86,0-12.529-2.637-18.606-7.006c-7.344-5.278-17.401-12.509-35.689-12.509c-18.286,0-28.343,7.23-35.687,12.51
	c-6.076,4.368-9.743,7.005-18.599,7.005c-8.858,0-12.525-2.637-18.602-7.006c-7.344-5.278-17.4-12.509-35.687-12.509
	s-28.343,7.23-35.687,12.51c-6.076,4.368-9.743,7.005-18.598,7.005c-8.857,0-12.523-2.637-18.599-7.005
	c-7.343-5.279-17.399-12.51-35.686-12.51s-28.343,7.23-35.687,12.51c-6.076,4.368-9.744,7.005-18.6,7.005
	c-3.255,0-5.805-0.359-8.035-1.026c-4.897,8.447-9.192,17.286-12.813,26.467c5.524,2.233,12.273,3.831,20.847,3.831
	c18.287,0,28.343-7.23,35.687-12.51c6.076-4.368,9.744-7.005,18.6-7.005c8.856,0,12.522,2.637,18.598,7.005
	c7.343,5.279,17.399,12.51,35.687,12.51c18.286,0,28.342-7.23,35.686-12.51c6.076-4.368,9.743-7.005,18.599-7.005
	c8.857,0,12.524,2.637,18.6,7.005c7.344,5.279,17.401,12.51,35.688,12.51c18.286,0,28.343-7.23,35.687-12.51
	c6.076-4.368,9.743-7.005,18.599-7.005c8.859,0,12.528,2.637,18.605,7.006c7.344,5.278,17.402,12.509,35.69,12.509
	C427.438,246.022,434.188,244.422,439.714,242.189z"/>
<path style="fill:#7EC66A;" d="M255.991,197.235c-18.287,0-28.343,7.23-35.687,12.51c-6.076,4.368-9.743,7.005-18.598,7.005
	c-8.857,0-12.523-2.637-18.599-7.005c-7.343-5.279-17.399-12.51-35.686-12.51s-28.343,7.23-35.687,12.51
	c-6.076,4.368-9.744,7.005-18.6,7.005c-3.255,0-5.805-0.359-8.035-1.026c-4.897,8.447-9.192,17.286-12.813,26.467
	c5.524,2.233,12.273,3.831,20.847,3.831c18.288,0,28.343-7.23,35.688-12.51c6.076-4.368,9.744-7.005,18.6-7.005
	c8.856,0,12.522,2.637,18.598,7.005c7.343,5.279,17.399,12.51,35.687,12.51c18.162,0,28.202-7.13,35.531-12.401
	c5.364-12.806,11.941-24.975,19.591-36.365C256.546,197.252,256.278,197.235,255.991,197.235z"/>
<path style="fill:#5AAA4F;" d="M81.056,406.112h349.887C397.947,469.053,331.994,512,256,512S114.053,469.053,81.056,406.112z"/>
<path style="fill:#4A994A;" d="M256,512c24.561,0,48.069-4.492,69.759-12.689c-0.001-0.002-0.001-0.003-0.002-0.005
	c-36.866-21.722-66.611-54.235-84.899-93.194H81.056C114.053,469.053,180.006,512,256,512z"/>
<path style="fill:#92DD7A;" d="M439.714,386.988c-3.621,9.18-7.915,18.019-12.813,26.466c-2.232-0.668-4.784-1.027-8.042-1.027
	c-8.86,0-12.529,2.637-18.606,7.006c-7.344,5.278-17.401,12.509-35.689,12.509c-18.286,0-28.343-7.23-35.687-12.51
	c-6.076-4.368-9.743-7.005-18.599-7.005c-8.858,0-12.525,2.637-18.602,7.006c-7.344,5.278-17.4,12.509-35.687,12.509
	s-28.343-7.23-35.687-12.51c-6.076-4.368-9.743-7.005-18.598-7.005c-8.857,0-12.523,2.637-18.599,7.005
	c-7.343,5.279-17.399,12.51-35.686,12.51s-28.343-7.23-35.687-12.51c-6.076-4.368-9.744-7.005-18.6-7.005
	c-3.255,0-5.805,0.359-8.035,1.026c-4.897-8.447-9.192-17.286-12.813-26.467c5.524-2.233,12.273-3.831,20.847-3.831
	c18.287,0,28.343,7.23,35.687,12.51c6.076,4.368,9.744,7.005,18.6,7.005c8.856,0,12.522-2.637,18.598-7.005
	c7.343-5.279,17.399-12.51,35.687-12.51c18.286,0,28.342,7.23,35.686,12.51c6.076,4.368,9.743,7.005,18.599,7.005
	c8.857,0,12.524-2.637,18.6-7.005c7.344-5.279,17.401-12.51,35.688-12.51c18.286,0,28.343,7.23,35.687,12.51
	c6.076,4.368,9.743,7.005,18.599,7.005c8.859,0,12.528-2.637,18.605-7.006c7.344-5.278,17.402-12.509,35.69-12.509
	C427.438,383.155,434.188,384.753,439.714,386.988z"/>
<path style="fill:#7EC66A;" d="M235.848,394.56c-7.211-5.128-17.102-11.405-34.141-11.405c-18.287,0-28.343,7.23-35.686,12.51
	c-6.076,4.368-9.743,7.005-18.598,7.005c-8.857,0-12.524-2.637-18.6-7.005c-7.344-5.279-17.4-12.51-35.687-12.51
	c-8.575,0-15.322,1.598-20.847,3.831c3.621,9.18,7.915,18.02,12.813,26.467c2.23-0.667,4.78-1.026,8.035-1.026
	c8.857,0,12.524,2.637,18.6,7.005c7.344,5.279,17.4,12.51,35.687,12.51c18.286,0,28.342-7.23,35.686-12.51
	c6.076-4.368,9.743-7.005,18.599-7.005c8.856,0,12.522,2.637,18.598,7.005c7.239,5.205,17.133,12.293,34.936,12.491
	C247.603,420.216,241.09,407.709,235.848,394.56z"/>
<circle style="fill:#D1E7F8;" cx="201.573" cy="167.879" r="14.635"/>
<circle style="fill:#FFFFFF;" cx="310.417" cy="170.092" r="14.635"/>
<g>
	<circle style="fill:#D1E7F8;" cx="256" cy="170.092" r="7.609"/>
	<circle style="fill:#D1E7F8;" cx="201.583" cy="459.085" r="14.635"/>
</g>
<circle style="fill:#FFFFFF;" cx="310.417" cy="461.297" r="14.635"/>
<circle style="fill:#D1E7F8;" cx="256" cy="461.297" r="7.609"/>
<g>
</g>
<g>
</g>
<g>
</g>
<g>
</g>
<g>
</g>
<g>
</g>
<g>
</g>
<g>
</g>
<g>
</g>
<g>
</g>
<g>
</g>
<g>
</g>
<g>
</g>
<g>
</g>
<g>
</g>
</svg>
