<svg id="Capa_1" enable-background="new 0 0 512 512" height="512" viewBox="0 0 512 512" width="512" xmlns="http://www.w3.org/2000/svg"><g><path d="m144.227 407.298 15.474 4.146 42.085-118.915 28.401-144.142-15.474-4.146c-8.546-2.29-17.33 2.782-19.62 11.328l-62.194 232.11c-2.289 8.545 2.782 17.329 11.328 19.619z" fill="#f6ab2f"/><path d="m231.072 214.293c-.653 0-1.317-.085-1.977-.261l-54.077-14.49c-4.065-1.09-6.478-5.268-5.389-9.334 1.09-4.066 5.274-6.473 9.334-5.389l54.077 14.49c4.065 1.09 6.478 5.268 5.389 9.334-.913 3.404-3.993 5.65-7.357 5.65z" fill="#ffd15b"/><path d="m210.341 291.663c-.653 0-1.317-.085-1.977-.261l-54.077-14.49c-4.066-1.09-6.478-5.268-5.389-9.334 1.09-4.066 5.273-6.475 9.334-5.389l54.077 14.49c4.066 1.09 6.478 5.268 5.389 9.334-.913 3.404-3.993 5.65-7.357 5.65z" fill="#ffd15b"/><path d="m185.525 367.938c-.653 0-1.317-.085-1.978-.261l-42.255-11.322c-4.066-1.09-6.478-5.269-5.389-9.334 1.09-4.066 5.27-6.475 9.334-5.389l42.255 11.322c4.066 1.09 6.478 5.269 5.389 9.334-.912 3.405-3.991 5.65-7.356 5.65z" fill="#ffd15b"/><path d="m323.615 122.627c1.927-8.143-2.969-16.342-11.052-18.508l-16.45-4.408-35.174 73.5 1.953 66.863 15.571 4.172c8.426 2.258 17.051-2.893 19.06-11.381z" fill="#f6ab2f"/><path d="m320.99 163.754c-.653 0-1.317-.085-1.977-.261l-45.976-12.319c-4.066-1.09-6.478-5.268-5.389-9.334 1.09-4.067 5.275-6.475 9.334-5.389l45.976 12.319c4.066 1.09 6.478 5.268 5.389 9.334-.913 3.404-3.993 5.65-7.357 5.65z" fill="#ffd15b"/><path d="m309.917 210.541c-.653 0-1.317-.084-1.977-.261l-44.199-11.843c-4.066-1.09-6.478-5.268-5.389-9.334 1.09-4.067 5.275-6.473 9.334-5.389l44.199 11.843c4.066 1.09 6.478 5.268 5.389 9.334-.913 3.405-3.993 5.65-7.357 5.65z" fill="#ffd15b"/><path d="m383.837 22.437 16.024 8.013-16.024 24.034-66.724 4.164c-6.801.424-12.523 5.248-14.092 11.878l-89.354 377.531c-8.932 37.72-42.579 62.991-79.536 62.991-7.014 0-14.141-.908-21.238-2.816-50.057-13.409-81.238-63.228-71.429-114.11l5.167-26.804c7.026-36.446 5.686-74.012-3.919-109.865-2.29-8.54-11.068-13.615-19.618-11.325l123.796-33.172c-7.158 1.919-11.872 8.396-11.872 15.462 0 1.372.175 2.764.547 4.157l10.505 39.216c5.856 21.86 5.854 44.875-.003 66.734l-23.921 89.263c-.371 1.392-.547 2.785-.547 4.157 0 7.076 4.724 13.543 11.882 15.462 8.54 2.29 17.328-2.775 19.618-11.325l100.589-375.42c6.041-22.547 26.473-38.226 49.816-38.226h80.333z" fill="#fec345"/><g fill="#fcb138"><path d="m124.218 440.705c-1.678-2.565-2.619-5.601-2.619-8.758 0-1.372.175-2.764.547-4.157l.826-3.084c-2.847-6.396-8.451-11.499-15.74-13.452-12.819-3.435-25.995 4.173-29.43 16.992s4.173 25.995 16.992 29.43c12.812 3.434 25.981-4.164 29.424-16.971z"/><path d="m98.533 350.876c-3.435 12.819 4.173 25.995 16.992 29.43 7.29 1.953 14.695.335 20.359-3.781l7.821-29.186c-2.847-6.397-8.451-11.501-15.741-13.455-12.82-3.434-25.996 4.173-29.431 16.992z"/><ellipse cx="197.424" cy="384.134" rx="24.03" ry="24.03" transform="matrix(.952 -.305 .305 .952 -107.73 78.493)"/><ellipse cx="238.887" cy="229.394" rx="24.03" ry="24.03" transform="matrix(.29 -.957 .957 .29 -49.894 391.55)"/><ellipse cx="218.155" cy="306.764" rx="24.03" ry="24.03" transform="matrix(.968 -.251 .251 .968 -70.025 64.591)"/><path d="m383.837 22.437h-34.347c-4.18 7.291-11.827 12.369-20.777 12.927l-15.827.988c-22.669 1.415-41.743 17.493-46.974 39.595l-83.188 351.482c-8.932 37.72-42.579 62.991-79.536 62.991-7.014 0-14.141-.908-21.238-2.816-4.414-1.182-8.681-2.648-12.787-4.373 11.8 11.631 26.669 20.432 43.731 25.002 7.096 1.908 14.224 2.816 21.238 2.816 36.957 0 70.603-25.271 79.536-62.991l89.354-377.531c1.569-6.631 7.292-11.454 14.092-11.878l66.724-4.164 16.024-24.034z"/></g><path d="m447.921 54.48-16.02-8.01 16.02-24.03 56.131 7.016c4.541.568 7.948 4.427 7.948 9.003 0 4.576-3.407 8.436-7.948 9.003z" fill="#564f57"/><path d="m388.922 62.49h53.918c2.806 0 5.081-2.275 5.081-5.081v-37.898c0-2.806-2.275-5.081-5.081-5.081h-53.918c-2.806 0-5.081 2.275-5.081 5.081v37.898c0 2.806 2.275 5.081 5.081 5.081z" fill="#695e69"/><path d="m7.618 257.899c-3.365 0-6.444-2.246-7.357-5.651-1.089-4.066 1.324-8.244 5.389-9.334l154.74-41.462c4.063-1.087 8.245 1.323 9.334 5.389s-1.324 8.244-5.389 9.334l-154.74 41.462c-.66.177-1.324.262-1.977.262z" fill="#ffd15b"/><path d="m415.881 75.969c-4.209 0-7.621-3.412-7.621-7.621v-59.776c0-4.209 3.412-7.621 7.621-7.621s7.621 3.412 7.621 7.621v59.777c0 4.208-3.412 7.62-7.621 7.62z" fill="#7a6d79"/><path d="m77.347 272.384c-3.365 0-6.444-2.246-7.357-5.651-1.089-4.066 1.324-8.244 5.389-9.334l31.411-8.416c4.063-1.087 8.244 1.323 9.334 5.389 1.089 4.066-1.324 8.244-5.389 9.334l-31.411 8.416c-.661.177-1.324.262-1.977.262z" fill="#fcb138"/><circle cx="197.424" cy="363.505" fill="#ffe178" r="24.03"/><circle cx="218.155" cy="286.135" fill="#ffe178" r="24.03"/><circle cx="238.886" cy="208.765" fill="#ffe178" r="24.03"/><circle cx="121.744" cy="336.466" fill="#ffe178" r="24.03"/><circle cx="101.013" cy="413.836" fill="#ffe178" r="24.03"/></g></svg>