<?xml version="1.0" encoding="utf-8"?>
<!-- Generator: Adobe Illustrator 19.1.0, SVG Export Plug-In . SVG Version: 6.00 Build 0)  -->
<!DOCTYPE svg PUBLIC "-//W3C//DTD SVG 1.1//EN" "http://www.w3.org/Graphics/SVG/1.1/DTD/svg11.dtd">
<svg version="1.1" id="Layer_1" xmlns="http://www.w3.org/2000/svg" xmlns:xlink="http://www.w3.org/1999/xlink" x="0px" y="0px"
	 viewBox="0 0 20.6 20.6" style="enable-background:new 0 0 20.6 20.6;" xml:space="preserve">
<style type="text/css">
	.st0{fill:#7DC142;}
	.st1{fill:#FFFFFF;}
</style>
<g>
	<path class="st0" d="M10.3,20.6C4.6,20.6,0,16,0,10.3C0,4.6,4.6,0,10.3,0C16,0,20.6,4.6,20.6,10.3C20.6,16,16,20.6,10.3,20.6"/>
	<path class="st1" d="M12.9,14.6c-0.8,0.8-1.8,1.1-2.7,1.1c-3.3,0-5-2.5-5-5.4c0-2.9,1.9-5.4,5-5.4c2.1,0,3.6,1,4.4,3.1l-1.9,0.8
		c-0.3-0.9-0.9-2-2.5-2c-2,0-2.8,1.8-2.8,3.6c0,1.8,0.8,3.5,2.8,3.5c1.3,0,2.5-0.9,2.6-2.3h-2.5V9.7h4.4v5.7h-1.8V14.6"/>
</g>
</svg>
