<?xml version="1.0" encoding="utf-8"?>
<!-- Generator: Adobe Illustrator 19.1.0, SVG Export Plug-In . SVG Version: 6.00 Build 0)  -->
<!DOCTYPE svg PUBLIC "-//W3C//DTD SVG 1.1//EN" "http://www.w3.org/Graphics/SVG/1.1/DTD/svg11.dtd">
<svg version="1.1" id="Layer_1" xmlns="http://www.w3.org/2000/svg" xmlns:xlink="http://www.w3.org/1999/xlink" x="0px" y="0px"
	 viewBox="0 0 20.6 20.6" style="enable-background:new 0 0 20.6 20.6;" xml:space="preserve">
<style type="text/css">
	.st0{fill:#FFD420;}
	.st1{fill:#231F20;}
</style>
<g>
	<path class="st0" d="M10.3,20.6C4.6,20.6,0,16,0,10.3S4.6,0,10.3,0C16,0,20.6,4.6,20.6,10.3S16,20.6,10.3,20.6"/>
	<path class="st1" d="M13.2,14.7c-0.8,0.7-1.9,1.1-3,1.1c-3.1,0-5-2.5-5-5.4c0-2.9,1.9-5.5,5-5.5c3.1,0,5,2.5,5,5.5
		c0,1.1-0.3,2.1-0.8,3c0.4,0.4,0.9,0.7,1.8,0.8L15.6,16C14.8,15.7,13.8,15.3,13.2,14.7 M7.4,10.3c0,1.8,0.8,3.5,2.9,3.5
		c2,0,2.8-1.8,2.8-3.5c0-1.8-0.8-3.6-2.8-3.6C8.2,6.7,7.4,8.5,7.4,10.3z"/>
</g>
</svg>
