<?xml version="1.0" encoding="utf-8"?>
<!-- Generator: Adobe Illustrator 19.1.0, SVG Export Plug-In . SVG Version: 6.00 Build 0)  -->
<!DOCTYPE svg PUBLIC "-//W3C//DTD SVG 1.1//EN" "http://www.w3.org/Graphics/SVG/1.1/DTD/svg11.dtd">
<svg version="1.1" id="Layer_1" xmlns="http://www.w3.org/2000/svg" xmlns:xlink="http://www.w3.org/1999/xlink" x="0px" y="0px"
	 viewBox="0 0 20.6 20.6" style="enable-background:new 0 0 20.6 20.6;" xml:space="preserve">
<style type="text/css">
	.st0{fill:#F48120;}
	.st1{fill:#FFFFFF;}
</style>
<g>
	<path class="st0" d="M10.3,20.6C4.6,20.6,0,16,0,10.3C0,4.6,4.6,0,10.3,0C16,0,20.6,4.6,20.6,10.3C20.6,16,16,20.6,10.3,20.6"/>
	<path class="st1" d="M15,12.3c0,2.6-1.9,3.1-4,3.1H6.6V5h4.9c1.7,0,3.1,0.9,3.1,2.6c0,1.1-0.6,1.9-1.8,2.1l0,0l0,0
		C14.2,9.8,15,11,15,12.3 M12.4,7.9c0-0.7-0.5-1.2-1.6-1.2H8.6v2.5h2.2C11.7,9.1,12.4,8.8,12.4,7.9z M12.9,12.2
		c0-1.1-0.7-1.5-1.8-1.5H8.6v2.9h2.4C12.2,13.6,12.9,13.2,12.9,12.2z"/>
</g>
</svg>
