<svg height="511pt" viewBox="1 0 511.99895 511" width="511pt" xmlns="http://www.w3.org/2000/svg"><path d="m125.324219 30.273438c-48.234375 17.554687-90.941407 40.644531-125.324219 66.285156l51.738281 142.152344c26.527344 72.878906 107.117188 110.453124 180 83.925781 72.863281-26.519531 110.445313-107.105469 83.917969-179.984375l-51.738281-142.152344c-42.820313 2.457031-90.367188 12.21875-138.59375 29.773438zm-62.902344 151.363281c1.519531-16.464844 10.984375-31.878907 26.632813-40.292969 15.648437-8.414062 33.726562-7.816406 48.292968-.003906-1.511718 16.453125-10.976562 31.863281-26.621094 40.289062-15.65625 8.417969-33.742187 7.8125-48.304687.007813zm136.828125 52.234375c-27.085938 9.859375-49.609375 26.695312-66.273438 47.746094-10.640624-39.160157 10.347657-80.597657 49.171876-94.730469 38.820312-14.128907 81.53125 4.125 98.5625 40.960937-26.308594-5.414062-54.382813-3.832031-81.460938 6.023438zm34.539062-97.035156c-17.40625 3.605468-34.566406-2.117188-46.300781-13.746094 6.136719-15.347656 19.605469-27.425782 37-31.039063s34.550781 2.109375 46.296875 13.746094c-6.136718 15.339844-19.601562 27.425781-36.996094 31.039063zm0 0" fill="#ffc933"/><path d="m230.808594 322.964844c-72.632813 25.890625-152.652344-11.679688-179.070313-84.253906l-51.738281-142.152344c16.84375-12.5625 35.675781-24.507813 56.195312-35.488282l29.851563 82.023438c-13.847656 8.699219-22.203125 23.160156-23.625 38.542969 11.769531 6.300781 25.824219 7.90625 39.058594 3.855469l11.285156 31.007812c5.027344 13.8125 11.015625 26.710938 17.695313 38.453125-.007813.003906-.007813.003906.003906.007813-.683594 8.777343.09375 17.773437 2.515625 26.65625 2.601562-3.289063 5.34375-6.472657 8.234375-9.550782 27.160156 39.042969 61.808594 60.277344 89.59375 50.898438zm0 0" fill="#ffac33"/><path d="m386.695312 211.308594c-48.226562-17.554688-95.785156-27.320313-138.605468-29.777344l-51.738282 142.152344c-26.527343 72.882812 11.046876 153.460937 83.929688 179.988281 72.871094 26.523437 153.453125-11.050781 179.976562-83.933594l51.742188-142.152343c-34.382812-25.640626-77.082031-48.726563-125.304688-66.277344zm-141.285156 64.015625c14.566406-7.8125 32.644532-8.40625 48.292969.007812 15.648437 8.410157 25.113281 23.824219 26.628906 40.289063-14.5625 7.804687-32.644531 8.410156-48.289062-.003906-15.65625-8.425782-25.121094-23.839844-26.632813-40.292969zm54.105469 175.019531c-47.242187-17.195312-72.765625-67.601562-59.824219-115.246094 20.273438 25.609375 47.675782 46.09375 80.625 58.085938 32.945313 11.992187 67.109375 13.917968 99.101563 7.332031-20.710938 44.8125-72.675781 67.015625-119.902344 49.828125zm107.949219-85.4375c-17.394532-3.613281-30.859375-15.699219-37-31.039062 11.746094-11.636719 28.90625-17.355469 46.300781-13.746094 17.394531 3.613281 30.863281 15.691406 37 31.039062-11.734375 11.632813-28.894531 17.351563-46.300781 13.746094zm0 0" fill="#ff5a5a"/><path d="m279.371094 503.328125c-72.28125-26.855469-109.433594-107.066406-83.019532-179.644531l51.738282-142.152344c20.980468 1.207031 43.082031 4.15625 65.859375 8.9375l-29.480469 81c-13.222656-4.054688-27.289062-2.453125-39.058594 3.859375 1.414063 15.367187 9.769532 29.828125 23.625 38.539063l-11.65625 32.027343c-.773437 2.125-1.515625 4.25-2.230468 6.367188-5.542969-5.40625-10.695313-11.148438-15.457032-17.160157-5.894531 21.699219-3.8125 43.964844 4.664063 63.40625-6.628907 51.097657 6.132812 93.527344 35.015625 104.820313zm0 0" fill="#ed2929"/></svg>